<svg xmlns="http://www.w3.org/2000/svg" viewBox="0 0 427.31 326.38"><defs><style>.cls-1{fill:#ff4b44}</style></defs><path d="M0 300.4v-56.16h15.4v57.5h27.21v14.37H8.94l-6.06-7.49C.83 305.95 0 303.49 0 300.41m87.8-8.95-8.11-32.86h-1.64l-8.11 32.86h17.87-.01ZM50.94 304.4l16.63-60.17h17.66c3.29 0 5.34 1.54 6.26 4.83l15.3 55.34c.72 2.46.82 4.11.82 7.29v4.42H93.95l-5.44-21.87-22.08 11.29-2.67 10.58H50.1v-4.42c0-3.18.1-4.83.82-7.29m63.68-4v-56.16H130v57.5h27.21v14.37h-33.68l-6.06-7.49c-2.05-2.67-2.88-5.13-2.88-8.21m51.35-56.18h15.4v71.87h-15.4zm25.87 49.06v-26.24c0-15.3 8.32-23.62 23.62-23.62h6.74c15.09 0 23.62 7.7 23.62 21.36h-15.4v-2.88c0-2.67-1.44-4.11-4.11-4.11h-14.96c-2.67 0-4.11 1.44-4.11 4.11v36.51c0 2.67 1.44 4.11 4.11 4.11h14.96c2.67 0 4.11-1.44 4.11-4.11v-9.04h-10.68v-14.37h17.15l6.06 7.49c2.05 2.57 2.88 4.93 2.88 8.21v2.57c0 15.3-8.32 23.62-23.62 23.62h-6.74c-15.3 0-23.62-8.32-23.62-23.62m96.29-1.82L280 258.6h-1.64l-8.11 32.86h17.87-.01Zm-36.86 12.94 16.63-60.17h17.66c3.29 0 5.34 1.54 6.26 4.83l15.3 55.34c.72 2.46.82 4.11.82 7.29v4.42h-13.66l-5.44-21.87-22.08 11.29-2.67 10.58h-13.66v-4.42c0-3.18.1-4.83.82-7.29m137.03-15.17h-2.89v3.57h2.89c.25 0 .47-.09.63-.27.16-.19.24-.44.24-.73v-1.54c0-.3-.07-.54-.23-.74a.788.788 0 0 0-.63-.29m-10.89-.02h-2.12c-.28 0-.49.09-.65.28-.16.2-.24.44-.24.74v6.4c0 .29.07.53.23.73.17.2.38.3.65.31h2.12c.26 0 .47-.1.63-.3.17-.19.25-.44.26-.73v-6.4c.01-.3-.07-.54-.24-.74a.802.802 0 0 0-.63-.29m-10.59-.02h-3.01v3.87h3.01c.25 0 .47-.09.64-.28.17-.2.25-.43.25-.74v-1.82c0-.3-.08-.54-.25-.74a.802.802 0 0 0-.63-.29" class="cls-1"/><path d="M414.07 288.87v-.88s-.03.09-.06.13l-.38.59h-.04l-.39-.6s-.05-.08-.07-.12c0 .05.02.09.02.13v.74h-.2v-1.21h.21l.47.73.48-.73h.18v1.21h-.22Zm-1.4-1h-.47v1h-.24v-1h-.47v-.21h1.18v.21Zm-1.36 9.2c0 .74-.26 1.37-.77 1.88-.52.52-1.15.78-1.89.78h-3.12c-.75 0-1.36-.26-1.87-.75-.5-.5-.75-1.11-.75-1.87v-1.24h1.93l.29 1.15c.13.47.46.72.99.72h2.12c.27 0 .49-.09.65-.29.16-.19.24-.44.24-.73v-1.37c0-.67-.29-1.01-.88-1.01h-2.66c-.73 0-1.37-.26-1.87-.78-.51-.52-.78-1.15-.78-1.88v-1.8c0-.72.27-1.34.79-1.86a2.49 2.49 0 0 1 1.88-.77h3.08c.74 0 1.35.26 1.86.75.5.5.75 1.11.75 1.86v1.12h-1.92l-.29-1.02c-.15-.48-.48-.72-.97-.72h-2.09c-.27 0-.49.09-.65.29s-.24.44-.24.74v1.05c0 .65.3.98.89.98h2.66c.73 0 1.35.27 1.86.8.54.53.79 1.15.79 1.87v2.11h-.03Zm-10-7.82h-3.2l-.02 10.46h-2.21l.02-10.47h-3.17v-2.02h8.59v2.03Zm-11.83 10.45-2.03-4.89h-2.09v4.88h-2.21l.02-12.49h5.52c.74 0 1.37.27 1.88.79.51.51.78 1.14.77 1.85v2.18c0 .56-.16 1.08-.47 1.54-.33.45-.74.77-1.22.98l2.18 5.16h-2.35Zm-8.45-15.47-30.09-.04 7.34-11.55h-5.37l3.66-5.78 22.38.03-3.67 5.77-10.03-.02-3.72 5.78 16.16.02 14.8-23.3 18.34 29.12h-6.94l-3.64-5.79-10.87-.02 3.66-5.78h3.56l-4.13-6.57-11.44 18.11v.02Zm-.57 12.78c0 .76-.25 1.39-.79 1.9-.52.52-1.14.78-1.88.78h-2.98c-.74 0-1.37-.27-1.89-.79-.52-.51-.78-1.14-.78-1.9v-7.18c.01-.72.28-1.34.79-1.85s1.15-.78 1.89-.77h2.98c.74 0 1.36.26 1.88.78.53.5.78 1.14.78 1.86v7.17Zm-10.58-4.57c0 .73-.26 1.36-.78 1.87-.53.52-1.16.78-1.89.78h-3.44v4.58h-2.21l.02-12.49h5.64c.73.01 1.36.27 1.89.79.51.51.77 1.13.77 1.85v2.62Zm-10.91 4.55c0 .74-.26 1.37-.77 1.88-.52.52-1.15.78-1.87.78h-3.13c-.74 0-1.37-.26-1.86-.75s-.75-1.11-.74-1.87v-1.24h1.93l.28 1.15c.13.47.45.72.99.72h2.12c.26 0 .48-.09.65-.29.16-.19.24-.44.24-.73v-1.36c0-.67-.29-1.01-.88-1.01h-2.66c-.73 0-1.36-.26-1.89-.78a2.55 2.55 0 0 1-.76-1.88v-1.8c0-.72.26-1.34.77-1.86.53-.52 1.16-.77 1.89-.77h3.09c.73 0 1.35.26 1.86.75.5.5.75 1.12.75 1.86v1.12h-1.91l-.29-1.02c-.15-.48-.48-.72-.98-.72h-2.09c-.27 0-.49.09-.65.29-.17.2-.25.44-.25.74v1.05c0 .65.29.98.89.98h2.66c.72 0 1.34.27 1.86.8s.77 1.15.77 1.87v2.11l-.02-.02Zm4.88-41.68 23.76.04-3.65 5.76-23.75-.02 3.64-5.77Zm17.31-21.37c-25.53-.04-46.25 20.63-46.29 46.15-.04 25.53 20.63 46.26 46.15 46.29 25.53.04 46.25-20.63 46.29-46.15.04-25.53-20.63-46.25-46.15-46.29m-228.92-61.18c0-6 2.4-12.48 6.72-18.72L267.18 0h62.63L208.4 172.76h54.71l-84.94 43.19-18.24-23.27c-5.04-6.48-7.68-12.96-7.68-19.92m-48.23-87.82L162.8 0h56.87l-73.18 104.14H194l-73.9 37.67-14.88-18.96c-5.28-6.96-7.68-12.24-7.68-19.44 0-6.48 2.4-12.72 6.48-18.48" class="cls-1"/></svg>